General

Format                         : MPEG-4
Format profile                 : Base Media
Codec ID                       : isom
File size                      : 57.4 MiB
Duration                       : 3mn 21s
Overall bit rate mode          : Variable
Overall bit rate               : 2 385 Kbps
Encoded date                   : UTC 2012-08-25 06:15:34
Tagged date                    : UTC 2012-08-25 06:15:34

Video
ID                             : 1
Format                         : AVC
Format/Info                    : Advanced Video Codec
Format profile                 : High@L3.0
Format settings, CABAC         : Yes
Format settings, ReFrames      : 2 frames
Codec ID                       : avc1
Codec ID/Info                  : Advanced Video Coding
Duration                       : 3mn 21s
Bit rate                       : 2 212 Kbps
Maximum bit rate               : 3 875 Kbps
Width                          : 720 pixels
Height                         : 480 pixels
Display aspect ratio           : 16:9
Original display aspect ratio  : 16:9
Frame rate mode                : Constant
Frame rate                     : 23.976 fps
Standard                       : NTSC
Color space                    : YUV
Chroma subsampling             : 4:2:0
Bit depth                      : 8 bits
Scan type                      : Progressive
Bits/(Pixel*Frame)             : 0.267
Stream size                    : 51.4 MiB (90%)


Audio
ID                             : 2
Format                         : MPEG Audio
Format version                 : Version 1
Format profile                 : Layer 3
Mode                           : Joint stereo
Mode extension                 : MS Stereo
Codec ID                       : 6B
Duration                       : 3mn 21s
Bit rate mode                  : Variable
Bit rate                       : 241 Kbps
Maximum bit rate               : 262 Kbps
Channel(s)                     : 2 channels
Sampling rate                  : 44.1 KHz
Compression mode               : Lossy
Delay relative to video        : -833ms
Stream size                    : 5.81 MiB (10%)